<svg xmlns="http://www.w3.org/2000/svg" width="265" height="266.025" viewBox="0 0 265 266.025"><defs><style>.a{fill:none;}.b,.c{stroke:none;}.c{fill:#444;}</style></defs><g class="a" transform="translate(2.5 2.901)"><path class="b" d="M19.5,1.074c-5.9,1.7-12.8,7.2-16,13l-3,5v221l3,6a28.463,28.463,0,0,0,16,13c5.1,1.4,215.9,1.4,221,0a28.463,28.463,0,0,0,16-13l3-6v-221l-3-5a28.463,28.463,0,0,0-16-13C235.8-.226,24-.226,19.5,1.074Zm166,27c11.8,2.4,22,5.5,22,7,0,3.3-11,48.7-12,50-1.4,1.7-2.7,1-14-3-21.8-7.7-42.2-6.8-52,3-7.6,7.6-11,18.7-11,40,.1,15.4,2.5,25.8,6,35,2.9,7.8,10.9,16.5,18,19,10.5,3.7,27.2,3.7,46-1,7.7-1.9,8.5-2.6,11-1,2.2,1.4,2.5,2.9,2,6-.3,2-1.9,12.7-3,24-1.2,11.3-1.6,20.6-2,21-2,1.9-22.7,5.4-37,6-46,1.7-77.5-13.4-94-43-16.6-29.6-18.2-81.2-3-113,13.7-28.5,37.5-45.4,72-51C145.6,25.274,174.9,25.874,185.5,28.074Z"/><path class="c" d="M 129.9250030517578 0.098541259765625 C 75.82499694824219 0.098541259765625 21.75 0.423553466796875 19.5 1.07354736328125 C 13.60000610351563 2.7735595703125 6.699996948242188 8.273544311523438 3.5 14.07354736328125 L 0.5 19.07354736328125 L 0.5 240.0735473632813 L 3.5 246.0735473632813 C 6.800003051757813 252.0735473632813 13.19999694824219 257.2735595703125 19.5 259.0735473632813 C 22.05000305175781 259.7735595703125 76.02499389648438 260.12353515625 130 260.12353515625 C 183.9750061035156 260.12353515625 237.9499969482422 259.7735595703125 240.5 259.0735473632813 C 246.8000030517578 257.2735595703125 253.1999969482422 252.0735473632813 256.5 246.0735473632813 L 259.5 240.0735473632813 L 259.5 19.07354736328125 L 256.5 14.07354736328125 C 253.1999969482422 8.07354736328125 246.8000030517578 2.873504638671875 240.5 1.07354736328125 C 238.1499938964844 0.423553466796875 184.0249938964844 0.098541259765625 129.9250030517578 0.098541259765625 M 193.7592620849609 85.94021606445313 C 192.1222534179688 85.94021606445313 189.0335693359375 84.74029541015625 181.5 82.07354736328125 C 171.8161315917969 78.65310668945313 162.4075012207031 76.92951965332031 154.0825653076172 76.92951965332031 C 143.6666870117188 76.92951965332031 134.9467010498047 79.62684631347656 129.5 85.07354736328125 C 121.8999938964844 92.67355346679688 118.5 103.7735443115234 118.5 125.0735473632813 C 118.6000061035156 140.4735412597656 121 150.8735504150391 124.5 160.0735473632813 C 127.3999938964844 167.8735504150391 135.3999938964844 176.5735473632813 142.5 179.0735473632813 C 147.4359741210938 180.8128967285156 153.7438812255859 181.7347412109375 160.9941711425781 181.7347412109375 C 169.1669921875 181.7347412109375 178.5377502441406 180.5641174316406 188.5 178.0735473632813 C 193.2514038085938 176.901123046875 195.3758850097656 176.1856231689453 196.893310546875 176.1855010986328 C 197.8349914550781 176.1854248046875 198.5426635742188 176.4608459472656 199.5 177.0735473632813 C 201.6999969482422 178.4735412597656 202 179.9735412597656 201.5 183.0735473632813 C 201.1999969482422 185.0735473632813 199.6000061035156 195.7735595703125 198.5 207.0735473632813 C 197.3000030517578 218.3735504150391 196.8999938964844 227.6735534667969 196.5 228.0735473632813 C 194.5 229.9735565185547 173.8000030517578 233.4735565185547 159.5 234.0735473632813 C 157.1668701171875 234.1597747802734 154.8641662597656 234.2028656005859 152.605712890625 234.2028656005859 C 110.3363342285156 234.2028656005859 81.16311645507813 219.1722412109375 65.5 191.0735473632813 C 48.89999389648438 161.4735412597656 47.30000305175781 109.8735504150391 62.5 78.07354736328125 C 76.19999694824219 49.57354736328125 100 32.67355346679688 134.5 27.07354736328125 C 138.9612731933594 26.35009765625 146.3629455566406 26.01432800292969 154.3084564208984 26.01432800292969 C 166.1319885253906 26.01432800292969 179.1603088378906 26.75776672363281 185.5 28.07354736328125 C 197.3000030517578 30.47355651855469 207.5 33.57354736328125 207.5 35.07354736328125 C 207.5 38.37355041503906 196.5 83.77354431152344 195.5 85.07354736328125 C 195.0333557128906 85.64018249511719 194.5776824951172 85.94021606445313 193.7592620849609 85.94021606445313 M 129.9250030517578 -2.901458740234375 C 158.1855773925781 -2.901458740234375 184.720703125 -2.814849853515625 204.6424255371094 -2.6575927734375 C 215.3507843017578 -2.573089599609375 223.8478240966797 -2.470428466796875 229.8975372314453 -2.352447509765625 C 240.0853576660156 -2.153778076171875 240.7587127685547 -1.967529296875 241.2997436523438 -1.81787109375 L 241.3119659423828 -1.81451416015625 L 241.3241424560547 -1.81103515625 C 244.8017578125 -0.81744384765625 248.3263244628906 1.07794189453125 251.5167846679688 3.670196533203125 C 254.6762084960938 6.237228393554688 257.2975158691406 9.3160400390625 259.1005249023438 12.57682800292969 L 262.0724792480469 17.53004455566406 L 262.5 18.24258422851563 L 262.5 19.07354736328125 L 262.5 240.0735473632813 L 262.5 240.7817687988281 L 262.1832885742188 241.4151916503906 L 259.1832885742188 247.4151916503906 L 259.1570129394531 247.4678039550781 L 259.1286315917969 247.5193023681641 C 257.3248291015625 250.7989807128906 254.6926727294922 253.896484375 251.5167846679688 256.4768981933594 C 248.3263244628906 259.0691528320313 244.8017578125 260.9645080566406 241.3241729736328 261.9581298828125 L 241.3091735839844 261.96240234375 L 241.2941436767578 261.9665222167969 C 240.5298614501953 262.1763305664063 239.107177734375 262.5668640136719 204.5598907470703 262.8609313964844 C 184.6648254394531 263.0303039550781 158.1855773925781 263.12353515625 130 263.12353515625 C 101.8144226074219 263.12353515625 75.33517456054688 263.0303039550781 55.44010925292969 262.8609313964844 C 20.892822265625 262.5668640136719 19.47013854980469 262.1763305664063 18.70585632324219 261.9665222167969 L 18.69082641601563 261.96240234375 L 18.67582702636719 261.9581298828125 C 15.19825744628906 260.9645080566406 11.67367553710938 259.0691528320313 8.48321533203125 256.4768981933594 C 5.307327270507813 253.896484375 2.6751708984375 250.7989807128906 0.871368408203125 247.5193023681641 L 0.842987060546875 247.4678039550781 L 0.81671142578125 247.4151916503906 L -2.18328857421875 241.4151916503906 L -2.5 240.7817687988281 L -2.5 240.0735473632813 L -2.5 19.07354736328125 L -2.5 18.24258422851563 L -2.072479248046875 17.53004455566406 L 0.900421142578125 12.57525634765625 C 4.448822021484375 6.18206787109375 11.91229248046875 0.137786865234375 18.66938781738281 -1.809173583984375 C 19.22685241699219 -1.970245361328125 19.86099243164063 -2.153411865234375 30.03663635253906 -2.352447509765625 C 36.06832885742188 -2.470428466796875 44.54963684082031 -2.573089599609375 55.24504089355469 -2.6575927734375 C 75.142578125 -2.814849853515625 101.6644287109375 -2.901458740234375 129.9250030517578 -2.901458740234375 Z M 204.310302734375 36.33578491210938 C 203.4138488769531 35.92433166503906 201.6954193115234 35.25006103515625 198.5227508544922 34.31709289550781 C 194.7294921875 33.20158386230469 189.8922424316406 32.02830505371094 184.9020690917969 31.01336669921875 L 184.8962097167969 31.01216125488281 L 184.8903503417969 31.01094055175781 C 179.1363220214844 29.81672668457031 166.8463897705078 29.01434326171875 154.3084716796875 29.01434326171875 C 146.0245056152344 29.01434326171875 138.9796142578125 29.38630676269531 134.980224609375 30.03486633300781 C 101.3642120361328 35.49137878417969 78.53999328613281 51.630126953125 65.20382690429688 79.37330627441406 C 50.51260375976563 110.1153717041016 51.84620666503906 160.5938110351563 68.11660766601563 189.6061248779297 L 68.11849975585938 189.6094818115234 L 68.12039184570313 189.6128692626953 C 83.50389099121094 217.2099761962891 111.9288635253906 231.2028656005859 152.605712890625 231.2028656005859 C 154.820068359375 231.2028656005859 157.1008911132813 231.1600952148438 159.3849945068359 231.0757446289063 C 165.5909118652344 230.8147888183594 173.7817077636719 229.9399261474609 181.2990112304688 228.7350921630859 C 184.7716674804688 228.1785125732422 187.8938903808594 227.5844116210938 190.3281097412109 227.0169372558594 C 192.0941772460938 226.605224609375 193.1734619140625 226.2826385498047 193.8129272460938 226.0619659423828 C 193.9394226074219 224.8366088867188 194.0973968505859 222.8397521972656 194.2516784667969 220.8895874023438 C 194.5419921875 217.2197113037109 194.9395751953125 212.1946105957031 195.51513671875 206.7723083496094 C 196.5230407714844 196.4218597412109 197.96142578125 186.4402160644531 198.5331726074219 182.6285095214844 L 198.53564453125 182.6121826171875 L 198.5382843017578 182.5958251953125 C 198.7224731445313 181.4539184570313 198.7581481933594 180.6867370605469 198.6443176269531 180.3156127929688 C 198.6202850341797 180.2372283935547 198.5564575195313 180.029052734375 197.8893585205078 179.6045532226563 L 197.8861083984375 179.6024475097656 L 197.8828582763672 179.6003723144531 C 197.2345733642578 179.1854858398438 197.0765380859375 179.1855163574219 196.8935394287109 179.1855163574219 C 196.2010040283203 179.185546875 194.8397827148438 179.5404052734375 192.7793273925781 180.0774841308594 C 191.7662353515625 180.3415832519531 190.6180877685547 180.6408538818359 189.2210693359375 180.9856109619141 C 184.2342529296875 182.2320861816406 179.27001953125 183.1832122802734 174.4657897949219 183.8126831054688 C 169.7962493896484 184.4245147705078 165.2637481689453 184.7347259521484 160.9941711425781 184.7347259521484 C 157.2550354003906 184.7347259521484 153.7075805664063 184.4961242675781 150.4502868652344 184.0255889892578 C 147.1620788574219 183.5505523681641 144.1517486572266 182.8364105224609 141.5029296875 181.9030151367188 C 137.6646423339844 180.551513671875 133.4860687255859 177.6077270507813 129.7376098632813 173.6141967773438 C 126.1056671142578 169.7447662353516 123.2486877441406 165.3114013671875 121.6918640136719 161.1291809082031 C 119.7069244384766 155.9097595214844 118.2620697021484 150.7787780761719 117.2750701904297 145.4443359375 C 116.12939453125 139.2522277832031 115.5487823486328 132.5952758789063 115.5000762939453 125.093017578125 L 115.5 125.0832977294922 L 115.5 125.0735473632813 C 115.5 114.0564727783203 116.3777923583984 105.810302734375 118.2624664306641 99.12232971191406 C 119.2218933105469 95.71769714355469 120.4335327148438 92.75094604492188 121.9665679931641 90.05255126953125 C 123.4610290527344 87.42208862304688 125.2313537597656 85.09954833984375 127.3786773681641 82.95222473144531 C 130.3920288085938 79.93887329101563 134.3017578125 77.63558959960938 138.9991760253906 76.10636901855469 C 143.4362487792969 74.66191101074219 148.5110321044922 73.92951965332031 154.0825805664063 73.92951965332031 C 162.8280639648438 73.92951965332031 172.6543579101563 75.76751708984375 182.4991455078125 79.24484252929688 C 183.6022491455078 79.63529968261719 184.608642578125 79.99380493164063 185.5295715332031 80.32186889648438 C 188.19775390625 81.27241516113281 190.1255798339844 81.95915222167969 191.532470703125 82.40043640136719 C 192.276611328125 82.63383483886719 192.7844696044922 82.76856994628906 193.1302490234375 82.84506225585938 C 193.999267578125 80.01983642578125 196.2500305175781 71.379638671875 199.1010437011719 59.52890014648438 C 201.9679260253906 47.61203002929688 203.7485046386719 39.4976806640625 204.310302734375 36.33578491210938 Z"/></g></svg>