<svg version="1" xmlns="http://www.w3.org/2000/svg" width="346.667" height="346.667" viewBox="0 0 260.000000 260.000000"><path d="M19.4 1.1C13.5 2.8 6.8 8.2 3.6 14L.5 19.5v221l3.1 5.5c3.3 6 9.9 11.2 16.2 13 5.1 1.4 215.3 1.4 220.4 0 6.3-1.8 12.9-7 16.2-13l3.1-5.5v-221l-3.1-5.5c-3.3-6-9.9-11.2-16.2-13-4.7-1.3-216.3-1.2-220.8.1zm166.3 27.3c11.8 2.4 21.3 5.6 21.3 7.1 0 3.3-10.2 48-11.2 49.3-1.4 1.7-3.5 1.3-14.8-2.7-21.8-7.7-41.8-6.4-51.6 3.4-7.6 7.6-10.4 18.6-10.4 39.9.1 15.4 1.6 25.9 5.1 35.1 2.9 7.8 11.3 16.4 18.4 18.9 10.5 3.7 27.5 3.1 46.3-1.6 7.7-1.9 8.3-1.9 10.8-.3 2.2 1.4 2.5 2.2 2 5.3-.3 2-1.5 12.9-2.6 24.2-1.2 11.3-2.4 20.8-2.8 21.2-2 1.9-21.9 4.9-36.2 5.5-46 1.7-78-12.6-94.5-42.2-16.6-29.6-17.7-81.6-2.5-113.4 13.7-28.5 37-45 71.5-50.6 11.1-1.8 40.6-1.3 51.2.9z"/></svg>