<svg xmlns="http://www.w3.org/2000/svg" xmlns:xlink="http://www.w3.org/1999/xlink" width="300" height="440" viewBox="0 0 300 440"><defs><clipPath id="a"><path d="M10,0H204.46a10,10,0,0,1,10,10V232.842a0,0,0,0,1,0,0H0a0,0,0,0,1,0,0V10A10,10,0,0,1,10,0Z" transform="translate(10 10)" fill="#707070" stroke="#3f3f3f" stroke-linejoin="round" stroke-width="5"/></clipPath><clipPath id="c"><rect width="300" height="440"/></clipPath></defs><g id="b" clip-path="url(#c)"><g transform="translate(10 10)" fill="#1e1e1e" stroke-linejoin="round"><path d="M 285 425 L 280 425 L 0 425 L -5 425 L -5 420 L -5 0 L -5 -5 L 0 -5 L 280 -5 L 285 -5 L 285 0 L 285 420 L 285 425 Z" stroke="none"/><path d="M 0 0 L 0 420 L 280 420 L 280 0 L 0 0 M 0 -10 L 280 -10 C 285.5228881835938 -10 290 -5.52288818359375 290 0 L 290 420 C 290 425.5228881835938 285.5228881835938 430 280 430 L 0 430 C -5.52288818359375 430 -10 425.5228881835938 -10 420 L -10 0 C -10 -5.52288818359375 -5.52288818359375 -10 0 -10 Z" stroke="none" fill="#1e1e1e"/></g><g transform="translate(10 10)" fill="#3f3f3f" stroke="#3f3f3f" stroke-linejoin="round" stroke-width="5"><path d="M10,0H270a10,10,0,0,1,10,10V304a0,0,0,0,1,0,0H0a0,0,0,0,1,0,0V10A10,10,0,0,1,10,0Z" stroke="none"/><path d="M10,2.5H270a7.5,7.5,0,0,1,7.5,7.5V299a2.5,2.5,0,0,1-2.5,2.5H5A2.5,2.5,0,0,1,2.5,299V10A7.5,7.5,0,0,1,10,2.5Z" fill="none"/></g><g transform="translate(10 310)" fill="#3f3f3f" stroke="#3f3f3f" stroke-width="1"><path d="M0,0H280a0,0,0,0,1,0,0V110a10,10,0,0,1-10,10H10A10,10,0,0,1,0,110V0A0,0,0,0,1,0,0Z" stroke="none"/><path d="M1,.5H279a.5.5,0,0,1,.5.5V110a9.5,9.5,0,0,1-9.5,9.5H10A9.5,9.5,0,0,1,.5,110V1A.5.5,0,0,1,1,.5Z" fill="none"/></g><g transform="translate(33 94)" clip-path="url(#a)"><path d="M16.19.929C11.3,2.337,5.757,6.808,3.107,11.611L.541,16.165V199.16l2.567,4.554a23.905,23.905,0,0,0,13.414,10.764c4.223,1.159,178.275,1.159,182.5,0a23.905,23.905,0,0,0,13.414-10.764L215,199.16V16.165l-2.567-4.554A23.905,23.905,0,0,0,199.019.847C195.127-.23,19.916-.147,16.19.929Zm137.7,22.605c9.771,1.987,17.637,4.637,17.637,5.879,0,2.732-8.446,39.745-9.274,40.822C161.1,71.643,159.356,71.312,150,68c-18.051-6.376-34.612-5.3-42.726,2.815-6.293,6.293-8.612,15.4-8.612,33.038.083,12.752,1.325,21.446,4.223,29.064,2.4,6.459,9.357,13.58,15.236,15.65,8.694,3.064,22.771,2.567,38.338-1.325,6.376-1.573,6.873-1.573,8.943-.248,1.822,1.159,2.07,1.822,1.656,4.389-.248,1.656-1.242,10.682-2.153,20.038-.994,9.357-1.987,17.223-2.318,17.554-1.656,1.573-18.134,4.057-29.975,4.554-38.089,1.408-64.586-10.433-78.249-34.943-13.745-24.51-14.656-67.567-2.07-93.9,11.344-23.6,30.637-37.261,59.2-41.9,9.191-1.49,33.618-1.076,42.4.745Z" transform="translate(9.459 18.707)" fill="#707070"/></g></g></svg>