<svg xmlns="http://www.w3.org/2000/svg" xmlns:xlink="http://www.w3.org/1999/xlink" width="300" height="440" viewBox="0 0 300 440">
  <defs>
    <style>
      .cls-1 {
        clip-path: url(#clip-random-letter);
      }

      .cls-2, .cls-8 {
        fill: #6a5acd;
      }

      .cls-2, .cls-3 {
        stroke-linejoin: round;
      }

      .cls-3 {
        fill: #3f3f3f;
        stroke: #3f3f3f;
        stroke-width: 5px;
      }

      .cls-4, .cls-5 {
        fill: #707070;
      }

      .cls-4 {
        font-size: 300px;
      }

      .cls-4, .cls-6 {
        font-family: SegoeUI-Semibold, Segoe UI;
        font-weight: 600;
      }

      .cls-5 {
        stroke: #707070;
      }

      .cls-6 {
        fill: #202020;
        font-size: 30px;
      }

      .cls-7, .cls-8 {
        stroke: none;
      }

      .cls-9 {
        fill: none;
      }
    </style>
    <clipPath id="clip-random-letter">
      <rect width="300" height="440"/>
    </clipPath>
  </defs>
  <g id="random-letter" class="cls-1">
    <g id="Path_1" data-name="Path 1" class="cls-2" transform="translate(10 10)">
      <path class="cls-7" d="M 285 425 L 280 425 L 0 425 L -5 425 L -5 420 L -5 0 L -5 -5 L 0 -5 L 280 -5 L 285 -5 L 285 0 L 285 420 L 285 425 Z"/>
      <path class="cls-8" d="M 0 0 L 0 420 L 280 420 L 280 0 L 0 0 M 0 -10 L 280 -10 C 285.5228881835938 -10 290 -5.52288818359375 290 0 L 290 420 C 290 425.5228881835938 285.5228881835938 430 280 430 L 0 430 C -5.52288818359375 430 -10 425.5228881835938 -10 420 L -10 0 C -10 -5.52288818359375 -5.52288818359375 -10 0 -10 Z"/>
    </g>
    <g id="Rectangle_1" data-name="Rectangle 1" class="cls-3" transform="translate(10 10)">
      <path class="cls-7" d="M10,0H270a10,10,0,0,1,10,10V304a0,0,0,0,1,0,0H0a0,0,0,0,1,0,0V10A10,10,0,0,1,10,0Z"/>
      <path class="cls-9" d="M10,2.5H270a7.5,7.5,0,0,1,7.5,7.5V299a2.5,2.5,0,0,1-2.5,2.5H5A2.5,2.5,0,0,1,2.5,299V10A7.5,7.5,0,0,1,10,2.5Z"/>
    </g>
    <text id="_" data-name="?" class="cls-4" transform="translate(83.5 260)"><tspan x="0" y="0">?</tspan></text>
    <g id="Rectangle_2" data-name="Rectangle 2" class="cls-5" transform="translate(10 310)">
      <path class="cls-7" d="M0,0H280a0,0,0,0,1,0,0V110a10,10,0,0,1-10,10H10A10,10,0,0,1,0,110V0A0,0,0,0,1,0,0Z"/>
      <path class="cls-9" d="M1,.5H279a.5.5,0,0,1,.5.5V110a9.5,9.5,0,0,1-9.5,9.5H10A9.5,9.5,0,0,1,.5,110V1A.5.5,0,0,1,1,.5Z"/>
    </g>
    <text id="Random_letter" data-name="Random letter" class="cls-6" transform="translate(150.5 382)"><tspan x="-97.485" y="0">Random letter</tspan></text>
  </g>
</svg>
